# xmcd
# 
# Track frame offsets:
#     150
#     17757
#     34173
#     50973
#     73398
#     83383
#     96251
#     129542
#     142413
#     157135
#     173364
#     194533
# 
# Disc length: 2871
# 
# Revision: 0
# Processed by: cddbd v1.5.2PL0 Copyright (c) Steve Scherf et al.
# Submitted via: fre:ac v1.0.17
# 
DISCID=b00b350c
DTITLE=Lösekes Blues Gang - Old Masters And Soul
DYEAR=2015
DGENRE=Blues
TTITLE0=Running Out O ftTime
TTITLE1=Anything You Do Is Alright
TTITLE2=Soul City
TTITLE3=You Keep Me Hanging On
TTITLE4=I Want To Be Love
TTITLE5=It´ s Too Late Brother
TTITLE6=Whiskye Woman Blues
TTITLE7=Days Of Old
TTITLE8=I´ e Been Lost Without You
TTITLE9=Old Masters And Soul
TTITLE10=Honest I Do
TTITLE11=She´ s Untrue
EXTD=
EXTT0=Ursprung Chris Vachon-
EXTT1=Ursprung Cage/CLaunch/Russell
EXTT2=S. Quast - F. Stehr - D. Stehr
EXTT3=S. Quast - F. Stehr - D: Stehr
EXTT4=Muddy Waters
EXTT5=Little Walter
EXTT6=F. Stehr
EXTT7=B. B. King
EXTT8=Colin James (Memphis Slim)
EXTT9=S. Quast - F. Stehr - D. Stehr
EXTT10=Jimmy Reed
EXTT11=S. Quast
PLAYORDER=
